HIERARCHY
ROOT Torso
{
    OFFSET 0 0 0
    CHANNELS 6 Xposition Yposition Zposition Xrotation Yrotation Zrotation
    JOINT LHip 
    {   
        OFFSET 0 0 0
        CHANNELS 3 Xrotation Yrotation Zrotation
        JOINT LThigh
        {
            OFFSET 0.055 -0.055 -0.01
            CHANNELS 3 Xrotation Yrotation Zrotation
            JOINT LLeg
            {
                OFFSET 0 -0.160 0.015
                CHANNELS 3 Xrotation Yrotation Zrotation
                JOINT LFoot
                {
                    OFFSET 0 -0.16 -0.01
                    CHANNELS 3 Xrotation Yrotation Zrotation
                    JOINT LToes
                    {
                        OFFSET 0 0 0.09
                        CHANNELS 3 Xrotation Yrotation Zrotation
                        End Site
                        {
                            OFFSET 0 0 0
                        }
                    }
                }
            }
        }
    }
    JOINT RHip 
    {   
        OFFSET 0 0 0
        CHANNELS 3 Xrotation Yrotation Zrotation
        JOINT RThigh
        {
            OFFSET -0.055 -0.055 -0.01
            CHANNELS 3 Xrotation Yrotation Zrotation
            JOINT RLeg
            {
                OFFSET 0 -0.160 0.015
                CHANNELS 3 Xrotation Yrotation Zrotation
                JOINT RFoot
                {
                    OFFSET 0 -0.16 -0.01
                    CHANNELS 3 Xrotation Yrotation Zrotation
                    JOINT RToes
                    {
                        OFFSET 0 0 0.09
                        CHANNELS 3 Xrotation Yrotation Zrotation
                        End Site
                        {
                            OFFSET 0 0 0
                        }
                    }
                }
            }
        }
    }
    JOINT Neck
    {
        OFFSET 0 0.135 0
        CHANNELS 3 Xrotation Yrotation Zrotation
        JOINT Head
        {
            OFFSET 0 0.075 0
            CHANNELS 3 Xrotation Yrotation Zrotation
            End Site 
            {
                OFFSET 0 0 0
            }
        }
    }
    JOINT LUpperarm
    {
        OFFSET 0.098 0.15 0
        CHANNELS 3 Xrotation Yrotation Zrotation
        JOINT LLowerarm
        {
            OFFSET 0 0.009 0.09
            CHANNELS 3 Xrotation Yrotation Zrotation
            JOINT LHand
            {
                OFFSET 0 0 0.105
                CHANNELS 3 Xrotation Yrotation Zrotation
                End Site
                {
                    OFFSET 0 0 0
                }
            }
        }
    }
    JOINT RUpperarm
    {
        OFFSET -0.098 0.15 0
        CHANNELS 3 Xrotation Yrotation Zrotation
        JOINT RLowerarm
        {
            OFFSET 0 0.009 0.09
            CHANNELS 3 Xrotation Yrotation Zrotation
            JOINT RHand
            {
                OFFSET 0 0 0.105
                CHANNELS 3 Xrotation Yrotation Zrotation
                End Site
                {
                    OFFSET 0 0 0
                }
            }
        }
    }
}
MOTION
Frames: 21
Frame Time: 0.04
0 0 0 0 0 0 0 0 0 8.177202 0 -1.555201 31.424655 0 0 15.75004 0 6.392719 0 0 0 0 0 0 13.169549 0 4.968045 24.766171 0 0 11.428795 0 -1.996908 0 0 0 0 0.21016 0 -4.909 0 0 87.82056 -0.478573 0 0 -5.205458 17.941371 0 0 0 89.908158 2.656907 0 0 24.480694 -36.767605 0 0 0
0 0 0 0 0 0 0 0 0 8.889346 0 -2.020682 29.894226 0 0 15.250988 0 6.330134 0 0 0 0 0 0 12.63216 0 4.778584 26.046311 0 0 11.355819 0 -2.098116 0 0 0 0 0.12938 0 -4.846876 0 0 87.83045 -0.741739 0 0 -6.450245 19.243727 0 0 0 90.01797 2.790077 0 0 23.850004 -35.852629 0 0 0
0 0 0 0 0 0 0 0 0 9.400019 0 -2.441202 28.468389 0 0 15.037778 0 6.22399 0 0 0 0 0 0 12.073099 0 4.559411 27.490558 0 0 11.337818 0 -2.187479 0 0 0 0 0.031288 0 -4.794536 0 0 89.043044 -0.788937 0 0 -9.282476 20.390128 0 0 0 89.773979 2.951327 0 0 23.040565 -35.046013 0 0 0
0 0 0 0 0 0 0 0 0 9.842508 0 -2.846206 27.135343 0 0 15.005743 0 6.120661 0 0 0 0 0 0 11.441205 0 4.304473 29.051474 0 0 11.434438 0 -2.256797 0 0 0 0 -0.050512 0 -4.729847 0 0 90.058233 -0.645459 0 0 -11.999488 21.563906 0 0 0 89.499922 3.109267 0 0 22.168832 -34.18186 0 0 0
0 0 0 0 0 0 0 0 0 10.249183 0 -3.223756 25.870349 0 0 15.09802 0 5.999115 0 0 0 0 0 0 10.677703 0 4.033088 30.687493 0 0 11.751791 0 -2.282835 0 0 0 0 -0.131737 0 -4.669357 0 0 90.478611 -0.428635 0 0 -14.041113 22.755978 0 0 0 89.303841 3.266728 0 0 21.326526 -33.245581 0 0 0
0 0 0 0 0 0 0 0 0 10.649298 0 -3.581064 24.645305 0 0 15.236223 0 5.882473 0 0 0 0 0 0 9.762312 0 3.736395 32.384649 0 0 12.37457 0 -2.237624 0 0 0 0 -0.211336 0 -4.628905 0 0 90.50884 -0.211946 0 0 -15.599357 24.015767 0 0 0 89.167884 3.453852 0 0 20.489614 -32.119854 0 0 0
0 0 0 0 0 0 0 0 0 11.01747 0 -3.89477 23.484418 0 0 15.422759 0 5.758656 0 0 0 0 0 0 8.726391 0 3.434046 34.143354 0 0 13.231965 0 -2.144354 0 0 0 0 -0.279948 0 -4.591229 0 0 90.347977 0.044752 0 0 -16.930688 25.346585 0 0 0 89.051293 3.714039 0 0 19.630669 -30.79565 0 0 0
0 0 0 0 0 0 0 0 0 11.267735 0 -4.162813 22.436504 0 0 15.666296 0 5.628413 0 0 0 0 0 0 7.590493 0 3.081436 35.969893 0 0 14.347561 0 -2.005937 0 0 0 0 -0.340128 0 -4.553691 0 0 90.057708 0.318708 0 0 -18.114092 26.657709 0 0 0 88.945476 3.979622 0 0 18.764339 -29.363021 0 0 0
0 0 0 0 0 0 0 0 0 11.42143 0 -4.37609 21.52251 0 0 15.912781 0 5.546695 0 0 0 0 0 0 6.349635 0 2.684044 37.875712 0 0 15.619821 0 -1.835851 0 0 0 0 -0.402528 0 -4.531989 0 0 89.673816 0.59089 0 0 -19.189562 27.95 0 0 0 88.846049 4.209629 0 0 17.882654 -27.860564 0 0 0
0 0 0 0 0 0 0 0 0 11.476891 0 -4.532957 20.746335 0 0 16.176324 0 5.548766 0 0 0 0 0 0 5.032939 0 2.261988 39.86602 0 0 17.018678 0 -1.665737 0 0 0 0 -0.443688 0 -4.506364 0 0 89.248195 0.863902 0 0 -20.191522 29.228906 0 0 0 88.788553 4.371067 0 0 17.034123 -26.405322 0 0 0
0 0 0 0 0 0 0 0 0 11.508822 0 -4.657764 20.047927 0 0 16.438135 0 5.54814 0 0 0 0 0 0 3.614795 0 1.801478 41.954182 0 0 18.475945 0 -1.469072 0 0 0 0 -0.489151 0 -4.482745 0 0 88.815813 1.140827 0 0 -21.163545 30.540989 0 0 0 88.749389 4.504939 0 0 16.182099 -24.920191 0 0 0
0 0 0 0 0 0 0 0 0 11.518245 0 -4.74553 19.388674 0 0 16.694835 0 5.500446 0 0 0 0 0 0 2.111741 0 1.323138 44.135151 0 0 19.971256 0 -1.200253 0 0 0 0 -0.536928 0 -4.434145 0 0 88.36415 1.374706 0 0 -22.123245 31.828495 0 0 0 88.713214 4.619574 0 0 15.318556 -23.372121 0 0 0
0 0 0 0 0 0 0 0 0 11.59132 0 -4.872328 18.691242 0 0 16.968647 0 5.409843 0 0 0 0 0 0 0.528219 0 0.806065 46.40314 0 0 21.540775 0 -0.827617 0 0 0 0 -0.580295 0 -4.399628 0 0 87.954646 1.595037 0 0 -23.101613 33.124868 0 0 0 88.680069 4.754876 0 0 14.439798 -21.751608 0 0 0
0 0 0 0 0 0 0 0 0 11.728469 0 -4.994059 17.956324 0 0 17.261503 0 5.268156 0 0 0 0 0 0 -1.113207 0 0.28316 48.720805 0 0 22.8622 0 -0.551161 0 0 0 0 -0.605741 0 -4.358633 0 0 87.577862 1.838253 0 0 -24.102563 34.406836 0 0 0 88.628157 4.941906 0 0 13.496959 -19.987677 0 0 0
0 0 0 0 0 0 0 0 0 11.852505 0 -5.103263 17.159622 0 0 17.604269 0 5.145785 0 0 0 0 0 0 -2.73072 0 -0.218974 51.081978 0 0 23.824621 0 -0.364258 0 0 0 0 -0.644438 0 -4.329467 0 0 87.217345 2.088504 0 0 -25.10108 35.636898 0 0 0 88.559142 5.115379 0 0 12.524399 -18.180998 0 0 0
0 0 0 0 0 0 0 0 0 12.019726 0 -5.226789 16.360467 0 0 17.946499 0 5.003564 0 0 0 0 0 0 -4.255682 0 -0.704602 53.435137 0 0 24.392674 0 -0.368331 0 0 0 0 -0.678255 0 -4.294625 0 0 86.883975 2.336232 0 0 -26.099099 36.803952 0 0 0 88.446007 5.307476 0 0 11.482202 -16.281341 0 0 0
0 0 0 0 0 0 0 0 0 12.159994 0 -5.345362 15.581069 0 0 18.289061 0 4.858597 0 0 0 0 0 0 -5.77289 0 -1.205068 55.775248 0 0 24.757136 0 -0.479283 0 0 0 0 -0.707909 0 -4.268089 0 0 86.575051 2.591987 0 0 -27.079636 37.880862 0 0 0 88.248264 5.484527 0 0 10.350926 -14.311858 0 0 0
0 0 0 0 0 0 0 0 0 12.317208 0 -5.446138 14.824638 0 0 18.60549 0 4.718055 0 0 0 0 0 0 -7.227483 0 -1.671344 58.071042 0 0 24.986041 0 -0.714687 0 0 0 0 -0.738273 0 -4.253403 0 0 86.334331 2.837026 0 0 -28.070598 38.884892 0 0 0 87.885627 5.655563 0 0 9.016294 -12.233837 0 0 0
0 0 0 0 0 0 0 0 0 12.467271 0 -5.558875 14.059994 0 0 18.951235 0 4.593718 0 0 0 0 0 0 -8.623343 0 -2.135034 60.345142 0 0 25.159174 0 -1.060876 0 0 0 0 -0.762374 0 -4.247647 0 0 86.201128 3.101094 0 0 -29.096086 39.833108 0 0 0 87.174156 5.774139 0 0 7.328161 -10.084671 0 0 0
0 0 0 0 0 0 0 0 0 12.637538 0 -5.649714 13.272985 0 0 19.281067 0 4.480377 0 0 0 0 0 0 -9.97806 0 -2.546134 62.60474 0 0 25.313537 0 -1.415791 0 0 0 0 -0.785294 0 -4.248029 0 0 86.125665 3.381852 0 0 -30.098425 40.6898 0 0 0 85.627397 5.734835 0 0 5.149038 -7.628079 0 0 0
0 0 0 0 0 0 0 0 0 12.931095 0 -5.732112 12.478135 0 0 19.624014 0 4.335757 0 0 0 0 0 0 -11.425558 0 -3.008369 64.872863 0 0 25.43991 0 -1.748074 0 0 0 0 -0.79862 0 -4.253701 0 0 85.644359 3.607932 0 0 -30.681212 41.842578 0 0 0 84.634486 5.248227 0 0 4.740083 -4.809945 0 0 0
